<?xml version="1.0" encoding="UTF-8"?>
<svg id="Layer_2" data-name="Layer 2" xmlns="http://www.w3.org/2000/svg" viewBox="0 0 171.62 215.34">
  <defs>
    <style>
      .cls-1 {
        fill: #fff;
        stroke-width: 0px;
      }
    </style>
  </defs>
  <g>
    <circle class="cls-1" cx="25.66" cy="9.17" r=".82"/>
    <circle class="cls-1" cx="24.92" cy="12.88" r="2.81"/>
    <circle class="cls-1" cx="14.11" cy="16.24" r="1.57"/>
    <circle class="cls-1" cx="18.5" cy="18.92" r="2.25"/>
    <circle class="cls-1" cx="17.47" cy="21.53" r="2.49"/>
    <circle class="cls-1" cx="5.59" cy="25.75" r="1.58"/>
    <circle class="cls-1" cx="29.86" cy="27.84" r="1.18"/>
    <circle class="cls-1" cx="23.83" cy="32.35" r="1.24"/>
    <circle class="cls-1" cx="2.97" cy="35.77" r="2.45"/>
    <circle class="cls-1" cx="6.22" cy="39.17" r="2.06"/>
    <circle class="cls-1" cx="5.15" cy="41.03" r="2.57"/>
    <circle class="cls-1" cx="19.36" cy="44.96" r="2.27"/>
    <circle class="cls-1" cx="17.3" cy="48.18" r="2.9"/>
    <circle class="cls-1" cx="28.71" cy="50.33" r="3.38"/>
    <circle class="cls-1" cx="12.45" cy="52.7" r="2.02"/>
    <circle class="cls-1" cx="4.83" cy="55.83" r="3.75"/>
    <circle class="cls-1" cx="10.41" cy="59.22" r="3.07"/>
    <circle class="cls-1" cx="26.43" cy="61.77" r="1.53"/>
    <circle class="cls-1" cx="17.48" cy="64.54" r="1.94"/>
    <circle class="cls-1" cx="12.37" cy="67.06" r="2.33"/>
    <circle class="cls-1" cx="16.66" cy="70.36" r="3.64"/>
    <circle class="cls-1" cx="24.06" cy="73.07" r="2.8"/>
    <circle class="cls-1" cx="13.52" cy="76.64" r="3.5"/>
    <circle class="cls-1" cx="6.04" cy="80.7" r="2.28"/>
    <circle class="cls-1" cx="6.07" cy="84.26" r="3.45"/>
    <circle class="cls-1" cx="15.39" cy="87.71" r="3"/>
    <circle class="cls-1" cx="15.66" cy="92.38" r="1.71"/>
    <circle class="cls-1" cx="22.26" cy="96.36" r="2.68"/>
    <circle class="cls-1" cx="2.83" cy="98.42" r="2.83"/>
  </g>
  <g>
    <circle class="cls-1" cx="158.45" cy="102.53" r="1.38"/>
    <circle class="cls-1" cx="155.32" cy="111.02" r="3.71"/>
    <circle class="cls-1" cx="150.34" cy="105.35" r="2.63"/>
    <circle class="cls-1" cx="147.17" cy="121.26" r="1.3"/>
    <circle class="cls-1" cx="143.55" cy="125.09" r="1.75"/>
    <circle class="cls-1" cx="140.07" cy="101.88" r="1.67"/>
    <circle class="cls-1" cx="137.16" cy="123.35" r="3.21"/>
    <circle class="cls-1" cx="132.42" cy="111.67" r="1.82"/>
    <circle class="cls-1" cx="127.71" cy="109.76" r=".96"/>
    <circle class="cls-1" cx="125.3" cy="119.96" r="2.01"/>
    <circle class="cls-1" cx="120.71" cy="98.56" r="3.08"/>
    <circle class="cls-1" cx="117.95" cy="98.94" r="3.02"/>
    <circle class="cls-1" cx="115.85" cy="102.19" r="3.22"/>
    <circle class="cls-1" cx="111.38" cy="112.18" r="1.9"/>
    <circle class="cls-1" cx="106.33" cy="108.84" r="1.64"/>
    <circle class="cls-1" cx="104.39" cy="126.05" r="3.35"/>
    <circle class="cls-1" cx="101.38" cy="123.21" r="2.87"/>
    <circle class="cls-1" cx="96.64" cy="123.79" r="1.82"/>
    <circle class="cls-1" cx="94.61" cy="123.3" r="2.98"/>
    <circle class="cls-1" cx="91.09" cy="103.36" r="2.31"/>
    <circle class="cls-1" cx="88.23" cy="121.82" r="2.96"/>
    <circle class="cls-1" cx="86.94" cy="107.54" r="3.44"/>
    <circle class="cls-1" cx="84.33" cy="106.69" r="1.69"/>
    <circle class="cls-1" cx="81.75" cy="101.39" r="1.16"/>
    <circle class="cls-1" cx="78.26" cy="123.15" r="3.09"/>
    <circle class="cls-1" cx="76.16" cy="121.35" r="1.25"/>
    <circle class="cls-1" cx="75.29" cy="102.5" r="2.94"/>
    <circle class="cls-1" cx="72.1" cy="106.58" r="3.84"/>
    <circle class="cls-1" cx="67.34" cy="110.98" r="1.25"/>
    <circle class="cls-1" cx="63.84" cy="98.22" r="2.64"/>
    <circle class="cls-1" cx="59.07" cy="97.29" r="3.19"/>
    <circle class="cls-1" cx="54.18" cy="103.63" r="1.42"/>
    <circle class="cls-1" cx="51.78" cy="113.35" r="3.76"/>
    <circle class="cls-1" cx="47.07" cy="125.22" r=".81"/>
    <circle class="cls-1" cx="42" cy="125.45" r="2.05"/>
    <circle class="cls-1" cx="38.64" cy="111.13" r="1"/>
    <circle class="cls-1" cx="36.33" cy="117.84" r=".88"/>
    <circle class="cls-1" cx="31.37" cy="101.02" r="3.87"/>
    <circle class="cls-1" cx="29.68" cy="116.48" r="1.09"/>
    <circle class="cls-1" cx="24.94" cy="112.64" r="1.61"/>
    <circle class="cls-1" cx="21.64" cy="100.34" r="1.82"/>
    <circle class="cls-1" cx="18.2" cy="113.47" r="3.34"/>
    <circle class="cls-1" cx="14.8" cy="117.29" r=".95"/>
    <circle class="cls-1" cx="11.24" cy="113.39" r=".92"/>
    <circle class="cls-1" cx="8.68" cy="116.45" r="3.29"/>
    <circle class="cls-1" cx="5.12" cy="123.26" r="1.86"/>
  </g>
  <g>
    <circle class="cls-1" cx="165.46" cy="213.64" r="1.7"/>
    <circle class="cls-1" cx="143.67" cy="209.77" r="2.02"/>
    <circle class="cls-1" cx="143.98" cy="204.88" r="1.59"/>
    <circle class="cls-1" cx="165.34" cy="200.92" r="1.94"/>
    <circle class="cls-1" cx="158.88" cy="197.21" r="3.11"/>
    <circle class="cls-1" cx="146.01" cy="192.11" r=".81"/>
    <circle class="cls-1" cx="164.11" cy="187.54" r="2.65"/>
    <circle class="cls-1" cx="150.79" cy="183.91" r="3.71"/>
    <circle class="cls-1" cx="167.55" cy="181.38" r="1.27"/>
    <circle class="cls-1" cx="161.8" cy="176.89" r="1.09"/>
    <circle class="cls-1" cx="155.45" cy="174.84" r="3.35"/>
    <circle class="cls-1" cx="169.34" cy="170.07" r="2.28"/>
    <circle class="cls-1" cx="165.54" cy="168.09" r="1.6"/>
    <circle class="cls-1" cx="151.71" cy="166.02" r="1.95"/>
    <circle class="cls-1" cx="154.16" cy="162.39" r="1.17"/>
    <circle class="cls-1" cx="158.75" cy="159.81" r="1.3"/>
    <circle class="cls-1" cx="145.23" cy="155.46" r="2.31"/>
    <circle class="cls-1" cx="165.19" cy="151.32" r="2.72"/>
    <circle class="cls-1" cx="155.13" cy="149.77" r="3.61"/>
    <circle class="cls-1" cx="160.09" cy="147.52" r="3.59"/>
    <circle class="cls-1" cx="165.66" cy="143.68" r="2.59"/>
    <circle class="cls-1" cx="153.8" cy="140.28" r="3.23"/>
    <circle class="cls-1" cx="162.17" cy="137.21" r="1.27"/>
    <circle class="cls-1" cx="145.09" cy="135.24" r="3.87"/>
    <circle class="cls-1" cx="152.56" cy="131.27" r="1.98"/>
    <circle class="cls-1" cx="146.62" cy="127.29" r=".97"/>
    <circle class="cls-1" cx="145.7" cy="124.65" r="1.12"/>
    <circle class="cls-1" cx="168.46" cy="118.83" r="1.09"/>
    <circle class="cls-1" cx="162.02" cy="116.47" r="3.82"/>
    <circle class="cls-1" cx="158.6" cy="111.53" r="1.43"/>
    <circle class="cls-1" cx="160.07" cy="106.65" r="2.98"/>
    <circle class="cls-1" cx="161.27" cy="101.8" r="2.63"/>
    <circle class="cls-1" cx="165.43" cy="97.25" r="3.24"/>
    <circle class="cls-1" cx="157.1" cy="92.6" r="3.29"/>
    <circle class="cls-1" cx="140.79" cy="87.29" r="2.57"/>
    <circle class="cls-1" cx="157.08" cy="84.46" r="2.37"/>
    <circle class="cls-1" cx="168.87" cy="81.32" r="1.5"/>
    <circle class="cls-1" cx="146.48" cy="76.68" r="2"/>
    <circle class="cls-1" cx="168.14" cy="74.9" r="2.84"/>
    <circle class="cls-1" cx="160.93" cy="69.98" r="1.11"/>
    <circle class="cls-1" cx="153.59" cy="67.92" r="3.22"/>
    <circle class="cls-1" cx="147.11" cy="64.27" r="1.48"/>
    <circle class="cls-1" cx="151.87" cy="60.06" r="1.93"/>
    <circle class="cls-1" cx="164.85" cy="57.78" r="1.64"/>
    <circle class="cls-1" cx="163.16" cy="53.79" r="2.95"/>
    <circle class="cls-1" cx="164.08" cy="48.97" r="3.68"/>
    <circle class="cls-1" cx="151.61" cy="44.33" r="3.1"/>
    <circle class="cls-1" cx="158.55" cy="41.73" r=".84"/>
    <circle class="cls-1" cx="157.82" cy="38.4" r="3.61"/>
    <circle class="cls-1" cx="163.85" cy="34.1" r="1.4"/>
    <circle class="cls-1" cx="160.45" cy="31.07" r="3.77"/>
    <circle class="cls-1" cx="167.56" cy="29.25" r="3.05"/>
    <circle class="cls-1" cx="141.56" cy="24.74" r="3.4"/>
    <circle class="cls-1" cx="159.52" cy="21.6" r="3.38"/>
    <circle class="cls-1" cx="151.02" cy="17.03" r="3.26"/>
    <circle class="cls-1" cx="164.87" cy="12.75" r="1.41"/>
    <circle class="cls-1" cx="167.35" cy="7.87" r="3.84"/>
    <circle class="cls-1" cx="154.4" cy="3.9" r="3.9"/>
  </g>
</svg>