<?xml version="1.0" encoding="UTF-8"?>
<svg id="moon" xmlns="http://www.w3.org/2000/svg" viewBox="0 0 268.06 243.24">
  <defs>
    <style>
      .cls-1 {
        fill: #bec0c2;
      }

      .cls-1, .cls-2, .cls-3, .cls-4, .cls-5, .cls-6, .cls-7, .cls-8, .cls-9, .cls-10, .cls-11, .cls-12, .cls-13, .cls-14, .cls-15, .cls-16, .cls-17, .cls-18 {
        stroke-width: 0px;
      }

      .cls-2 {
        fill: #8a8c8e;
      }

      .cls-3 {
        fill: #c4c6c8;
      }

      .cls-4 {
        fill: #b6b8ba;
      }

      .cls-5 {
        fill: #b0b1b2;
      }

      .cls-6 {
        fill: #c5c8c8;
      }

      .cls-7 {
        fill: #a9abae;
      }

      .cls-8 {
        fill: #9c9ea1;
      }

      .cls-9 {
        fill: #e9e9ea;
      }

      .cls-10 {
        fill: #9d9fa2;
      }

      .cls-11 {
        fill: #8c8e90;
      }

      .cls-12 {
        fill: #a3a5a6;
      }

      .cls-13 {
        fill: #86888a;
      }

      .cls-14 {
        fill: #919396;
      }

      .cls-15 {
        fill: #a1a3a6;
      }

      .cls-16 {
        fill: #c2c4c6;
      }

      .cls-17 {
        fill: #95979a;
      }

      .cls-18 {
        fill: #babcbc;
      }
    </style>
  </defs>
  <path class="cls-6" d="M249.31,119.68c-7.05,93.03-58.77,120.61-128.73,123.45C49.18,246.03-2.94,189.44.13,117.31,3.11,47.35,48.87,3.72,117.26.17c69.92-3.63,137.33,49.69,132.04,119.5Z"/>
  <g>
    <ellipse class="cls-13" cx="205.22" cy="63.5" rx="12.16" ry="14.7" transform="translate(1.97 133.04) rotate(-36.08)"/>
    <ellipse class="cls-17" cx="204.42" cy="64.08" rx="11.17" ry="14.7" transform="translate(1.47 132.68) rotate(-36.08)"/>
  </g>
  <path class="cls-10" d="M221.51,175.27c.41.07,4.08.67,6.81-1.55,1.51-1.22,1.38-2.2,3.1-5.57,2.67-5.24,4.24-5.31,4.95-8.36.33-1.39-.09-3.52-.93-7.74-1.6-8.04-2.77-10.08-1.55-13,.77-1.84,1.51-1.7,2.17-3.72,1.14-3.48-.13-6.82-.62-8.05-1.84-4.65-4.4-4.76-9.29-10.22-5.93-6.63-7.17-12.07-11.15-12.07-1.29,0-2.59.57-3.41.93-3.74,1.64-4.9,4.45-5.88,4.02-.82-.35-1.02-2.74,0-4.33,1.22-1.9,3.77-1.99,3.72-2.48-.09-.79-6.6.79-8.98-2.17-1.52-1.88.02-3.89-1.86-6.19-1.63-1.99-3.88-1.83-4.02-3.1-.19-1.63,3.43-2.41,3.41-4.02-.04-2.37-7.95-4.93-9.29-3.1-1.06,1.44,2.79,4.48,1.55,7.74-.8,2.1-3.18,2.91-3.72,3.1-4.96,1.69-11.59-2.58-11.77-6.19-.09-1.92,1.7-2.33,1.55-4.33-.26-3.42-5.66-4.81-5.26-7.12.24-1.37,2.26-1.68,2.17-2.79-.08-1.01-1.8-1.43-3.41-2.17-4.19-1.92-8-6.15-7.74-9.6.11-1.46.97-3.01,1.86-3.1.76-.08,1.07.97,2.79,2.17,1.29.9,2.48,1.26,3.14,1.46,1.68.5,4.3.82,4.6.09.36-.86-2.8-2.37-2.48-3.41.46-1.48,7.45-.13,7.74-1.24.27-1.01-5.6-1.95-8.36-6.81-1.4-2.47-.81-3.84-1.86-4.33-2.95-1.4-7.04,9.68-16.1,12.38-9.42,2.81-17.07-5.58-21.05-1.86-3.42,3.2.92,10.64-3.72,14.86-2.44,2.22-5.75,2.07-5.88,3.72-.12,1.5,2.63,1.86,4.64,4.64,2.37,3.28.88,6.05,2.17,9.6,1.81,5,7.51,7.23,9.6,8.05,11.52,4.54,22.62-3.69,24.77-.31,1.07,1.69-.71,5.28-2.79,7.12-3,2.66-6.77,1.83-7.12,3.41-.31,1.39,2.61,2.02,4.95,5.57,1.44,2.19,1.95,4.38,2.79,8.05.91,3.98.67,5.48,2.17,6.81,1.6,1.43,3.39,1.07,3.72,2.17.5,1.7-3.46,3.58-3.1,4.64.71,2.07,16.37-3.25,18.58.62.42.74.21,1.55-1.55,5.57-4.4,10.08-6.09,11.9-5.26,13.31,1.91,3.27,13.86-1.65,15.48,1.55.56,1.11-.74,1.98-1.24,4.64-.73,3.93.77,9.15,4.64,12.07,4.19,3.17,10.94,3.5,13.31.62.39-.47.77-1.17.62-10.84-.07-4.32-.15-4.61-.31-4.95-2.15-4.64-9.77-2.1-14.86-6.19-7.64-6.14-5.87-24.23-.62-26.32.46-.18,1.34-.12,3.1,0,5.97.41,8.77,2.12,10.53.62.38-.32.56-.71.91-1.49,2.07-4.53-.19-7.61,1.25-11.21,1.13-2.82,4.13-4.89,5.26-4.33,1.8.88-.23,8.7-.62,10.22-1.28,4.94-2.23,4.85-2.48,8.05-.32,4.03,1.14,4.82.62,8.98-.48,3.86-1.89,4.44-1.24,6.19,1.04,2.79,4.72,1.68,8.05,5.26,2.46,2.65,1.53,4.43,4.02,6.19,2.82,2,5.96,1.1,6.19,2.17.27,1.21-3.88,1.81-5.57,5.26-1.54,3.14,0,6.49-.93,6.81-1.02.36-5.76-2.66-8.98-3.1-1.25-.17.49-1.02,0,0-1.05,2.16,2.87,7.75,8.05,8.67Z"/>
  <path class="cls-8" d="M135.74,105.17c-1.08-1.05-1.92-.58-4.28-1.51-4.53-1.78-4.19-4.58-7.04-5.03-4.51-.72-10.06,6.29-10.06,6.29-.46,1.54-1.27,3.34-2.77,3.77-2.29.66-3.82-2.59-7.55-3.27-4.57-.83-8.56,2.91-8.81,2.52-.24-.38,3.96-3.28,7.04-5.79,2.22-1.8,8.86-7.27,13.59-15.6,2.45-4.31,7.25-12.76,4.03-19.12-.91-1.8-2.3-3.1-3.02-3.77-4.03-3.78-6.91-2.7-10.57-6.29-2.42-2.38-1.84-3.52-4.03-4.78-2.37-1.37-4.25-.71-8.3-.75-6.45-.07-7.36-1.79-10.82-1.51-6.59.54-7.37,9.53-12.33,9.31-2.39-.11-2.96-2.01-6.29-2.01-.54,0-4.32,0-5.79,2.26-1.72,2.66,1.81,5.21.75,9.31-1.02,3.92-4.78,3.6-6.79,8.3-1.72,4.02-.68,8.28-1.01,8.3-.4.02-.19-6.34-2.77-7.3-1.85-.68-3.68,1.96-4.78,1.26-.8-.52-.68-2.47,1.26-12.08.59-2.91.85-4.09.25-4.53-1.7-1.24-8.09,5.23-8.81,4.53-.65-.64,5.01-5.48,4.53-10.57-.06-.64-.29-2.07,0-4.03.23-1.51.67-2.71,1.01-3.46-2.55,2.08-4.6,3.9-6.04,5.22-1.08.99-5.22,4.82-9.81,10.32-2.76,3.3-3.22,4.26-3.52,5.28-.63,2.16-.25,3.72-1.51,5.54-1,1.43-2.33,2.03-2.77,2.26-4.03,2.12-8.49,12.57-10.82,26.67-1.58,9.54-3.01,18.86,1.51,22.14,1.39,1,2.71.99,4.28,2.77,1.83,2.07,1.72,4.02,2.77,9.31.95,4.79,1.42,7.19,2.52,9.31,1.8,3.49,2.88,2.81,6.04,7.55,1.35,2.02,3.06,4.59,4.53,8.3,1.21,3.05,1.44,4.82,3.27,6.04,1.55,1.03,3.8,1.37,4.53.5.9-1.06-1.19-3.09-.25-5.03.62-1.27,2.26-1.93,3.52-2.01,2.59-.17,3.27,2.11,7.04,3.27.55.17,4.4,1.35,5.79-.25,1.15-1.33-.17-3.68.5-4.03.84-.42,3.41,2.91,5.03,5.54,2.93,4.74,2.83,7.29,2.77,8.05-.04.45-.25,3.15-1.51,3.52-1.35.4-2.51-2.29-3.77-2.01-1.61.35-2.59,5.37-1.51,9.81.24.97,1.98,8.12,8.3,10.06,4.02,1.23,9.34.19,10.57-2.52.89-1.97-.82-3.88.5-5.54.89-1.11,2.68-1.52,4.03-1.01,2.35.89,2.51,4.3,2.52,4.53.11,3.22-2.5,4.26-2.01,6.04.67,2.46,6.71,4.26,11.07,2.01,2.56-1.32,5.02-4.29,4.53-6.79-.31-1.58-1.55-1.71-3.77-4.53-2.21-2.8-3.3-5.6-3.02-5.79.37-.24,2.26,4.65,6.54,5.79,3.06.81,4.05-1.16,7.8-.25,3.02.73,4.53,2.54,5.79,1.76.9-.55.37-1.61,1.26-3.02,1.38-2.19,3.77-1.41,6.29-3.27,2.2-1.62,3.96-4.85,3.27-7.3-.3-1.06-.8-1.05-4.28-5.03-2.03-2.32-2.22-2.74-2.26-3.27-.15-2.03,2.22-2.6,3.52-5.54,1.22-2.75,1-6.49-.5-7.3-1.79-.96-4.71,2.59-6.29,1.51-.2-.13-.57-.47-.75-3.27-.28-4.2.4-5.87-.5-6.54-1.04-.77-2.54.98-4.03.25-1.62-.79-2.49-4.14-1.26-6.04,1.59-2.47,5.71-.93,7.3-3.52,1.12-1.83-.3-3.64.75-4.53,1.62-1.37,5.12,2.76,8.81,1.51,2.61-.88,3.89-3.98,4.53-5.54.55-1.33,1.07-2.6.5-3.52-.8-1.31-3.06-.73-5.79-1.01-4.17-.43-9.78-2.89-10.32-6.29-.59-3.76,5.26-7.14,5.54-7.3.87-.49,5.43-2.92,8.3-1.01,1.97,1.31,1.15,3.33,3.02,4.78,2.57,1.99,8.24,1.41,10.82-2.26,1.92-2.74,1.93-6.92,0-8.81Z"/>
  <g>
    <ellipse class="cls-13" cx="144.26" cy="39.15" rx="21.52" ry="17.8" transform="translate(-1.23 4.87) rotate(-1.92)"/>
    <ellipse class="cls-17" cx="144.31" cy="40.6" rx="21.52" ry="16.35" transform="translate(-1.28 4.87) rotate(-1.92)"/>
  </g>
  <g>
    <ellipse class="cls-13" cx="193.36" cy="197.77" rx="17.75" ry="14.68" transform="translate(-83.21 194.45) rotate(-44.96)"/>
    <ellipse class="cls-17" cx="192.52" cy="196.92" rx="17.75" ry="13.49" transform="translate(-82.86 193.61) rotate(-44.96)"/>
  </g>
  <path class="cls-17" d="M33.81,65.84c-1.93.09-.65,9.1-6.91,16.13-2.88,3.23-4.19,2.5-6.91,5.76-4.27,5.12-4.69,11.29-4.99,15.74-.64,9.4,2.2,17.26,3.46,20.74,1.36,3.77,1.97,4.21,2.69,7.3,1.73,7.43-.56,10.06.77,14.59,2.26,7.69,12.1,11.08,13.44,11.52,9.84,3.24,14.92-2.57,21.89.38,9.6,4.07,10.95,17.54,11.14,19.2.23,2.03.65,6.13-1.54,7.68-2.1,1.49-4.85-.61-6.14.77-1.55,1.65.04,7.12,3.84,9.22,1.47.81,4.3,1.68,5.76.38,2.06-1.82-.88-5.93,1.15-8.06,2.36-2.48,9.6-.38,9.6-.38,0,0,3.02,5.66,3.84,5.38,1.06-.36-2.59-10.28-.38-11.52,1.42-.8,3.49,3,9.22,5.38,1.87.78,7.3,3.04,12.67.77,1.22-.51,5.42-2.29,6.14-5.76,1-4.82-5.67-8.27-4.22-12.67.8-2.46,3.5-3.27,3.07-4.61-.46-1.45-3.58-.44-5.38-2.3-2.68-2.79.98-8.52-1.32-10.46-1.97-1.66-5.69,1.68-7.52.09-2.04-1.77-.59-8.67,3.07-10.37,2.72-1.26,5.1,1.08,6.91-.38,2.26-1.83.09-6.73,1.92-7.68,1.32-.68,2.73,1.7,6.14,1.92,2.71.17,5.41-1.09,5.38-1.92-.06-1.3-6.89.09-11.52-4.22-2.26-2.11-4.32-5.9-3.84-9.6.39-2.97,2.16-3.95,1.54-5.38-1.2-2.76-8.39-.33-10.39-3.22-1.17-1.69-.22-4.73,4.24-11.76,9.03-14.22,14.18-16.02,13.82-21.5-.34-5.31-5.53-9.06-9.98-12.29-3.44-2.49-9.17-6.63-15.36-5.38-5.06,1.03-5.15,4.6-10.75,5.76-6.18,1.28-9.18-2.42-11.9-.38-2.71,2.02-.31,6.08-2.3,14.21-.87,3.53-2.57,10.45-7.68,12.29-3.75,1.35-7.55-.67-8.45-1.15-2.14-1.14-4.27-3.08-7.68-9.98-4.46-9.03-5.06-14.28-6.53-14.21Z"/>
  <g>
    <ellipse class="cls-3" cx="88.52" cy="125.96" rx="4.17" ry="4.22" transform="translate(-4.18 3.04) rotate(-1.92)"/>
    <ellipse class="cls-3" cx="88.53" cy="126.31" rx="4.17" ry="3.87" transform="translate(-4.19 3.04) rotate(-1.92)"/>
  </g>
  <path class="cls-11" d="M34.58,87.73c-3.97-.45-9.57,7.7-10.75,16.13-.48,3.41-.02,5.35,4.61,21.89,3.78,13.48,4.16,14.66,5.76,16.51,5.07,5.89,14.87,9.94,23.04,6.53,1.92-.8,3.6-2.1,3.6-2.1s2.84-2.14,4.85-5.58c2.21-3.78,4.11-10.55,2.3-17.66-1.87-7.36-6.35-9.68-5.38-15.74.2-1.23.56-3.5,2.3-5.38,4.89-5.27,13.9-.2,17.66-4.61,2.33-2.73,2.03-8.38-.38-9.98-3.94-2.63-10.5,7.55-25.73,9.98-4.26.68-9.68,1.47-14.21-1.54-4.84-3.21-4.7-8.11-7.68-8.45Z"/>
  <path class="cls-11" d="M70.68,150.32c-2.26.85-3.93,5.01-2.3,8.06,1.62,3.03,5.47,3.07,5.76,3.07,1.93,0,4.76-.84,5.38-2.69,1.14-3.38-5.25-9.8-8.83-8.45Z"/>
  <path class="cls-15" d="M96.79,177.59c.07-3.02,5.48-5.91,8.06-4.22,2.47,1.61,2.32,7.36-.38,8.83-2.76,1.5-7.75-1.67-7.68-4.61Z"/>
  <path class="cls-1" d="M140.18,118.83c-3.24,1.04-2.74,5.36-6.53,13.06-2.42,4.91-5.2,10.56-9.98,11.52-3.18.64-4.7-1.31-7.3,0-3.1,1.56-4.9,6.32-3.46,8.45,1.56,2.3,6.15.41,7.68,2.69,1.12,1.67-1.27,3.41-1.54,6.91-.36,4.81,3.65,6.01,5.38,11.9,1.95,6.64-.89,12.79-1.54,14.21-.45.97-2.86,6.02-8.45,9.6-4.77,3.06-6.77,1.79-11.14,4.22-5.02,2.8-11.06,9.3-9.98,15.36,1.42,8.01,14.86,13.11,23.04,9.6,2.01-.86,4.88-2.75,6.91-5.76,3.07-4.54,1.8-8.06,4.99-10.37,1.64-1.19,2.24-.45,7.3-1.54,2.07-.44,6.18-1.32,10.37-3.46,5.68-2.89,6.24-5.41,9.6-5.38,3.37.03,3.93,2.58,6.91,2.3,4.17-.38,7.02-5.72,8.06-7.68,2.45-4.6,1.09-5.99,3.46-8.45,2.66-2.76,5.26-1.92,7.3-4.99.73-1.11.47-1.33,1.54-5.38,1.67-6.37,2.9-8.03,1.92-9.22-.84-1.02-2.04-.16-5.38-1.15-1.77-.53-4.32-1.29-4.99-3.07-.67-1.78,1.18-2.89,1.95-5.84.98-3.75-.3-8.51-3.1-11.06-1.97-1.79-4.51-2.22-9.6-3.07-4.92-.83-6.24-.25-7.3-1.54-1.65-2,.78-4.37,0-9.98-.24-1.7-.67-4.86-3.07-7.3-1.48-1.51-3.07-2.09-5.76-3.07-3.76-1.38-5.65-2.06-7.3-1.54Z"/>
  <path class="cls-4" d="M142.1,136.88c-3.29-1.1-8.97,7.9-11.14,11.9-3.44,6.37-3.18,9.75-3.07,10.75.27,2.45,1.25,4.64,1.92,6.14,1.65,3.7,2.71,3.97,3.84,6.91.9,2.35.99,4.18,1.15,7.68.23,4.89.35,7.34-.77,9.6-1.29,2.63-2.84,2.59-8.06,6.53-6.06,4.57-4.96,5.36-9.22,8.06-5.92,3.76-9.15,2.93-10.75,6.14-1.46,2.93-.68,7.43,1.15,8.06,4.05,1.42,11.9-16.59,21.89-18.05,4.59-.67,5.76-.77,5.76-.77,4.82-.4,6.25.07,8.06-1.15,2.18-1.47,2.93-4.05,3.07-4.61.86-3.29-.84-5.37.38-6.53,1.16-1.1,3.7-.19,4.22,0,3.17,1.13,3.56,3.65,5.76,3.84,1.36.12,2.43-.74,3.84-1.92,2.45-2.04,4.03-4.57,5.38-7.68,2.55-5.88,2.36-9.4,3.84-9.6,1.52-.21,2.14,3.45,4.61,3.84,3.05.49,7.39-4.24,6.53-6.53-1.46-3.89-17.61.03-18.82-3.84-.66-2.12,3.94-4.16,3.46-8.06-.37-3.01-3.51-4.94-4.22-5.38-4.63-2.84-7.94.06-11.52-2.69-1.26-.97-2.25-2.95-4.22-6.91-2.18-4.36-2.03-5.41-3.07-5.76Z"/>
  <path class="cls-16" d="M138.26,151.86c-1.37.85-.07,5.47.77,7.68,1.76,4.63,3.76,4.59,4.99,8.45,1.51,4.75-.84,6.97,1.15,9.6,1.87,2.46,6.16,3.43,8.06,1.92,2.8-2.21.13-9.47-.77-11.9-.36-.99-1.35-3.48-3.46-6.53-3.32-4.8-8.99-10.31-10.75-9.22Z"/>
  <path class="cls-14" d="M139.41,64.31c-2.31,1.02-2.46,5.26-2.69,11.52-.22,6.02-.33,9.03,1.54,11.14,1.74,1.97,4.77,2.36,10.75,3.07,6.72.79,8.42.05,12.29,1.15,1.5.43,3.97.51,6.27,2.21,1.2.89,2.18,1.62,2.56,2.78,1.28,3.98-6.62,7.34-5.76,11.9.65,3.46,5.04,3.21,6.53,7.68,1.28,3.84-1.48,5.49,0,9.22,1.22,3.08,4.44,5.31,7.68,5.76.95.13,3.76.52,5.76-1.15,2.34-1.96.91-4.52,3.07-6.53,1.65-1.53,4.09-1.53,8.45-1.54,4.03,0,5.54.69,6.53-.38.26-.28.77-.99,0-5.38-.86-4.88-1.29-7.31-3.07-9.22-1.89-2.02-3.07-1.33-4.61-3.46-1.79-2.48-.99-4.53-2.3-5.38-1.82-1.17-4.04,2.57-7.68,3.07-8.25,1.13-17.06-15.01-17.66-16.13-1.07-2-2.95-5.89-4.61-9.6-2.95-6.59-3.74-9.32-6.14-9.98-2.49-.69-3.37,1.76-7.3,1.92-5.11.21-7.1-3.79-9.6-2.69Z"/>
  <path class="cls-14" d="M219.67,118.07c-.41.24-.1,1.07-.03,3.02.05,1.38-.04,2.41-.74,6.58-1.48,8.8-1.97,9.64-1.15,10.75,1.4,1.89,3.64.61,5.38,2.69,2.12,2.54-.08,5.84,1.92,7.68,1.46,1.35,4.6,1.38,5.76,0,1.88-2.25-3.02-6.38-1.54-12.29.71-2.84,2.56-4.74,1.92-5.38-.82-.81-4.03,2.14-5.38,1.15-1.19-.88.79-3.63,0-7.3-.93-4.3-5.18-7.48-6.14-6.91Z"/>
  <path class="cls-14" d="M197.02,162.99c-1.17.63-1.42,2.54-1.15,3.84.51,2.45,3.24,4.56,4.99,3.84,1.33-.55,3.93-6.33,3.56-7.91-.59-2.54-5.76-.66-7.4.23Z"/>
  <path class="cls-2" d="M137.77,29.9c-2.75.79-4.29,2.94-5.31,4.38-1.42,1.98-3.34,4.67-2.5,7.5.86,2.9,4.23,4.67,6.88,5,3.24.4,4.73-1.45,7.19-.31,1.96.91,1.82,2.46,3.44,2.81,2.28.5,5.02-2.02,6.25-4.38,1.4-2.69,1.26-5.96,0-8.44-1.8-3.56-5.46-4.66-9.69-5.94-2.43-.73-4.15-1.23-6.25-.62Z"/>
  <path class="cls-2" d="M203.39,56.46c-.46.14-2.48.75-3.12,2.5-.73,1.97.79,4.05,1.25,4.69,1.52,2.08,2.82,1.66,3.75,3.44,1.06,2.01-.19,3.35.94,4.69,1.11,1.32,3.68,1.62,4.69.62.87-.86.09-2.18-.31-5.62-.62-5.34.74-6.61-.62-8.44-1.39-1.87-4.31-2.55-6.56-1.88Z"/>
  <path class="cls-2" d="M193.08,188.02c-2.43-.65-4.82,1.5-5.94,2.5-2.44,2.2-3.1,4.88-3.44,6.25-.48,1.97-.92,3.72,0,4.69,1.54,1.62,6.25.31,6.25.31h0s4.78.06,6.56-2.19c.96-1.22.79-2.79.62-4.38-.08-.71-.67-6.28-4.06-7.19Z"/>
  <path class="cls-18" d="M44.96,40.37c.54-1.11,2.83-5.59,9.06-9.69,4.41-2.9,8.64-4.2,11.25-5,3.84-1.18,5.4-1.16,9.38-2.81.58-.24,3.08-1.3,6.25-3.12,4.64-2.68,4.78-3.58,7.5-4.69,3.47-1.42,6.59-1.32,8.44-1.25,5.7.23,5.86,2.35,10.94,2.5,5.2.15,7.31-2.02,10-.31,2.04,1.3,2.64,3.7,2.81,4.38.81,3.24-.97,4.55-2.19,10.31-1.02,4.82-.94,9.37-.94,9.38.08,4.48.91,6.23-.31,7.5-1.47,1.52-4.43.86-6.88.31-5.8-1.29-6.19-3.53-10.94-4.69-3.13-.77-5.84-.41-11.25.31-4.56.61-4.28,1.08-9.38,1.88-7.8,1.22-8.91.18-12.19,1.88-2.76,1.43-2.38,2.37-6.56,5-2.32,1.46-7.04,4.06-7.81,3.12-.72-.87,2.21-4.56,4.06-6.88,3.5-4.39,5.78-5.9,5.31-6.88-.63-1.32-5.66-.14-6.25,0-6.96,1.64-10.34,5.66-11.56,4.69-1.17-.93.98-5.37,1.25-5.94Z"/>
  <path class="cls-5" d="M92.77,19.43c-4.73-.02-5.38,6.07-11.56,8.12-3.76,1.25-4.47-.69-11.25.31-4.6.68-9.16,2.29-9.06,3.44.12,1.44,7.57.87,8.44,3.75.71,2.33-3.56,4.78-2.81,6.25.8,1.57,6.46.35,9.69-.62,5.65-1.7,6.08-3.29,11.25-4.69,3.35-.91,6.34-1.71,10-.94,4.43.94,6.08,3.4,9.06,2.5,1.73-.52,2.78-1.83,4.06-3.44,1.45-1.82,3.14-3.93,2.81-6.56-.33-2.61-2.51-4.74-4.69-5.62-3.37-1.38-4.99.92-9.69,0-3.85-.75-3.73-2.49-6.25-2.5Z"/>
  <path class="cls-12" d="M99.96,25.99c-1.64.17-3.57,1.31-3.75,2.81-.29,2.34,3.68,5.44,6.56,4.38,1.34-.49,2.54-1.93,2.5-3.44-.06-2.26-2.88-4.01-5.31-3.75Z"/>
  <path class="cls-12" d="M74.96,32.87c-.41.41-2.41,2.38-1.88,3.44.61,1.22,4.44.98,7.19-.62,2.54-1.48,4.77-4.49,4.06-5.62-.86-1.38-6.22-.3-9.38,2.81Z"/>
  <path class="cls-7" d="M86.21,115.99c-2.65.79-4.22,1.26-5.62,2.81-1.89,2.1-2.09,4.65-2.19,5.94-.07.94-.22,3.16.94,5.62.38.82,1.6,3.41,4.38,4.69,1.97.91,3.82.61,7.5,0,3.89-.64,6.38-1.05,7.19-2.81.53-1.16-.28-1.55-.31-4.38-.04-3.54,1.21-4.7.31-5.94-.95-1.31-2.7-.47-3.75-1.88-1.12-1.5.34-3.16-.62-4.38-1.29-1.62-5.35-.42-7.81.31Z"/>
  <path class="cls-9" d="M88.38,121.75c-2.31.08-4.11,2.08-4.03,4.35s2,4.15,4.31,4.07c2.31-.08,4.11-2.08,4.03-4.35s-2-4.15-4.31-4.07Z"/>
</svg>